<svg xmlns="http://www.w3.org/2000/svg" viewBox="0 0 298 242.19"><defs><style>.cls-1{fill:#1da1f2;}</style></defs><title>Asset 1</title><g id="Layer_2" data-name="Layer 2"><g id="Layer_1-2" data-name="Layer 1"><path class="cls-1" d="M93.72,242.19c112.46,0,174-93.17,174-174q0-4-.17-7.9A124.34,124.34,0,0,0,298,28.67a121.92,121.92,0,0,1-35.11,9.63A61.36,61.36,0,0,0,289.78,4.48,122.62,122.62,0,0,1,251,19.32,61.19,61.19,0,0,0,146.77,75.07a173.61,173.61,0,0,1-126-63.88A61.19,61.19,0,0,0,39.67,92.82,60.68,60.68,0,0,1,12,85.17c0,.26,0,.51,0,.78A61.16,61.16,0,0,0,61,145.88a61,61,0,0,1-27.61,1A61.2,61.2,0,0,0,90.52,189.4a122.65,122.65,0,0,1-75.94,26.17A124.18,124.18,0,0,1,0,214.72a173.07,173.07,0,0,0,93.72,27.46"/></g></g></svg>